<?xml version="1.0" encoding="utf-8"?>
<!-- Generator: Adobe Illustrator 19.2.1, SVG Export Plug-In . SVG Version: 6.00 Build 0)  -->
<svg version="1.1" id="圖層_1" xmlns="http://www.w3.org/2000/svg" xmlns:xlink="http://www.w3.org/1999/xlink" x="0px" y="0px"
	 viewBox="0 0 106.2 30.2" style="enable-background:new 0 0 106.2 30.2;" xml:space="preserve">
<style type="text/css">
	.st0{fill:#FFFFFF;}
	.st1{fill:none;stroke:#FFFFFF;stroke-width:0.25;stroke-miterlimit:10;}
</style>
<g>
	<g>
		<g>
			<g>
				<path class="st0" d="M12.2,10.3c-0.1,0.3-0.3,0.6-0.4,1c-0.1,0.3-0.2,0.7-0.3,1c0,0.2-0.1,0.3-0.1,0.5l-0.1,0.5
					c-0.1,0.4,0,0.7-0.1,1c0,0.3,0,0.7,0,1c0,0.2,0,0.3,0.1,0.5l0.1,0.4c0.1,0.3,0.2,0.7,0.4,1l0.4,1l-0.2,0.1v0
					c-0.2-0.5-0.3-1.1-0.1-1.6c0.1-0.3,0.2-0.6,0.5-0.8c0.1-0.1,0.3-0.2,0.4-0.2c0.1,0,0.3,0,0.4,0l0,0.2c-0.2,0.1-0.4,0.2-0.6,0.3
					c-0.1,0.1-0.2,0.3-0.3,0.6c-0.1,0.4-0.1,1-0.1,1.5l0,0l0.3,0.6l-0.5-0.4c-0.3-0.2-0.5-0.5-0.8-0.8c-0.2-0.3-0.4-0.6-0.5-0.9
					c-0.1-0.2-0.1-0.4-0.1-0.6c0-0.2-0.1-0.4-0.1-0.6c0-0.4-0.1-0.7,0-1.1c0-0.4,0-0.8,0.1-1.1l0.1-0.5c0-0.2,0.1-0.4,0.2-0.5
					c0.1-0.3,0.3-0.7,0.5-1C11.7,10.9,11.9,10.6,12.2,10.3L12.2,10.3z"/>
			</g>
			<g>
				<path class="st0" d="M16.3,9.6c0,0,0-0.1,0-0.3c0-0.2,0.1-0.5,0.3-0.8c0.1-0.1,0.2-0.3,0.4-0.4c0.2-0.1,0.3-0.3,0.5-0.4
					c0.2-0.1,0.4-0.2,0.6-0.2c0.2,0,0.4-0.1,0.7-0.1c0.2,0,0.4,0,0.7,0c0.2,0,0.4,0.1,0.7,0.1c0.4,0.1,0.8,0.3,1.1,0.5
					c0.3,0.2,0.5,0.4,0.6,0.6c0.1,0.2,0.2,0.3,0.2,0.3l-0.1,0c0,0-0.1-0.1-0.2-0.2c-0.1-0.1-0.3-0.3-0.6-0.5c-0.3-0.2-0.6-0.3-1-0.4
					c-0.2,0-0.4,0-0.6-0.1c-0.2,0-0.4,0-0.7,0c-0.2,0-0.4,0.1-0.6,0.1c-0.2,0-0.4,0.1-0.6,0.2c-0.2,0.1-0.3,0.2-0.5,0.3
					c-0.1,0.1-0.2,0.2-0.3,0.4c-0.4,0.5-0.4,0.9-0.4,0.9L16.3,9.6z"/>
			</g>
			<g>
				<path class="st0" d="M17.7,8.2C17.7,8.2,17.6,8.2,17.7,8.2c-0.1,0.1-0.2,0.2-0.2,0.3c0,0.1-0.1,0.2-0.1,0.4c0,0.2,0,0.4,0,0.6
					c0,0.2,0.1,0.4,0.2,0.6c0.1,0.2,0.2,0.4,0.4,0.6c0.2,0.2,0.4,0.2,0.7,0.3c0.1,0,0.3,0,0.4,0c0.1,0,0.3,0,0.4,0
					c0.3,0,0.5-0.1,0.8-0.2l0.3-0.2l0.3-0.2c0.1-0.1,0.1-0.2,0.2-0.3C21,10,21,9.9,21.1,9.8c0-0.1,0-0.2,0.1-0.3l0-0.1l0-0.2
					c0-0.1,0-0.2,0-0.3c0-0.1,0-0.2-0.1-0.2C21,8.5,21,8.4,20.9,8.3C20.7,8.1,20.6,8,20.6,8l0-0.1c0,0,0.2,0,0.4,0.2
					c0.1,0.1,0.2,0.2,0.3,0.4c0.1,0.1,0.2,0.4,0.2,0.6l0,0.2c0,0.1,0,0.1,0,0.2c0,0.1,0,0.3-0.1,0.4c-0.1,0.1-0.1,0.3-0.2,0.4
					c-0.1,0.1-0.2,0.2-0.3,0.4c-0.1,0.1-0.2,0.2-0.4,0.3l-0.4,0.2c-0.3,0.1-0.6,0.2-0.9,0.2c-0.2,0-0.3,0-0.4,0c-0.2,0-0.3,0-0.5,0
					c-0.3-0.1-0.6-0.2-0.8-0.4c-0.2-0.2-0.4-0.5-0.5-0.7C17.1,10,17,9.7,17,9.5c0-0.2,0.1-0.4,0.1-0.6c0-0.2,0.1-0.3,0.2-0.5
					c0.1-0.1,0.2-0.2,0.2-0.2c0.1,0,0.1,0,0.1-0.1L17.7,8.2z"/>
			</g>
			<g>
				<path class="st0" d="M20.3,9.2c0,0,0,0.1,0,0.3c0,0.2-0.1,0.5-0.5,0.7c-0.2,0.1-0.3,0.2-0.5,0.2c-0.1,0-0.2,0-0.3,0
					c-0.1,0-0.2,0-0.3-0.1c-0.2-0.1-0.4-0.2-0.5-0.4c-0.1-0.2-0.1-0.4-0.1-0.6c0-0.3,0.2-0.7,0.5-0.9c0.2-0.1,0.3-0.1,0.5-0.1
					c0.1,0,0.3,0,0.5,0.1c0.3,0.1,0.4,0.4,0.5,0.6C20.3,9.1,20.3,9.2,20.3,9.2L20.3,9.2z M19.8,9.2c0,0,0-0.1,0-0.2
					c0-0.1-0.1-0.3-0.2-0.4c-0.1-0.1-0.2-0.1-0.3-0.1c-0.1,0-0.3,0-0.4,0.1c-0.1,0-0.3,0.2-0.4,0.3c-0.1,0.1-0.1,0.3-0.1,0.5
					c0,0.2,0.1,0.3,0.2,0.4c0.1,0.1,0.2,0.2,0.3,0.2c0,0,0.1,0,0.2,0c0,0,0.1,0,0.2,0c0.1,0,0.2-0.1,0.3-0.1
					c0.1-0.1,0.2-0.3,0.2-0.3C19.8,9.2,19.8,9.2,19.8,9.2L19.8,9.2z"/>
			</g>
			<g>
				<path class="st0" d="M19.2,8.9C19.2,8.9,19.2,8.9,19.2,8.9c0,0.1-0.1,0.3-0.2,0.3c0,0-0.1,0-0.2,0c-0.1,0-0.1,0-0.2,0
					c-0.1-0.1-0.2-0.2-0.2-0.3c0-0.1,0.1-0.2,0.2-0.3c0.1,0,0.1,0,0.2,0c0,0,0.1,0,0.1,0C19.2,8.7,19.2,8.9,19.2,8.9L19.2,8.9z
					 M19,8.9c0,0,0-0.1,0-0.2c0,0-0.1,0-0.1-0.1c0,0-0.1,0-0.1,0c0,0-0.1,0-0.1,0.1c0,0,0,0.1,0,0.1c0,0.1,0.1,0.2,0.1,0.2
					c0,0,0.1,0,0.1,0c0,0,0.1,0,0.1,0C18.9,9,18.9,9,19,8.9C18.9,9,19,9,19,8.9C19,8.9,19,8.9,19,8.9L19,8.9z"/>
			</g>
			<g>
				<path class="st0" d="M12.4,8.8c1,0,1.9-0.1,2.8-0.5C15.6,8,16,7.7,16.3,7.4c0.3-0.3,0.5-0.8,0.8-1.2c0.3-0.4,0.5-0.8,0.8-1.3
					c0.3-0.4,0.7-0.8,1.1-1.1c0.2-0.1,0.5-0.2,0.8-0.3c0.1,0,0.3-0.1,0.3-0.1c0.1,0,0.2-0.1,0.3-0.1c0.4-0.2,0.8-0.5,1.2-0.7
					c1.7-1.1,3.5-2,5.4-2.4c0.5-0.1,1-0.2,1.5-0.2c0.5,0,1,0,1.5,0.1c0.5,0,1,0.2,1.5,0.3C32,0.6,32.5,0.8,33,1L33.2,1L33,1.2l0,0
					c-0.2,0.2-0.3,0.3-0.5,0.5c-0.2,0.1-0.4,0.2-0.6,0.4c-0.2,0.1-0.4,0.2-0.6,0.3c-0.2,0.1-0.4,0.1-0.7,0.2
					c-0.4,0.2-0.9,0.2-1.4,0.3c-0.5,0-0.9,0-1.4,0l0-0.2c0.2-0.1,0.4-0.1,0.7-0.2c0.2-0.1,0.4-0.1,0.6-0.2C29.6,2.2,30,2.1,30.4,2
					c0.2-0.1,0.4-0.1,0.6-0.2c0.2-0.1,0.4-0.1,0.6-0.2c0.4-0.2,0.8-0.3,1.2-0.5v0l0,0.2c-0.5-0.1-0.9-0.3-1.4-0.4
					c-0.5-0.1-0.9-0.2-1.4-0.2c-0.5-0.1-1,0-1.4,0c-0.5,0-1,0.1-1.4,0.2c-1.9,0.4-3.6,1.3-5.3,2.4c-0.4,0.3-0.8,0.5-1.3,0.8
					C20.5,4,20.4,4,20.3,4c-0.2,0.1-0.2,0.1-0.4,0.1c-0.2,0-0.4,0.1-0.6,0.2c-0.4,0.2-0.7,0.6-1,0.9c-0.3,0.4-0.5,0.8-0.8,1.2
					c-0.3,0.4-0.5,0.9-0.9,1.3c-0.4,0.4-0.8,0.7-1.3,0.9c-1,0.4-2,0.5-3,0.4L12.4,8.8z"/>
			</g>
			<g>
				<path class="st0" d="M26.6,3.6c0,0,0.4,0.1,1.1,0.4c0.7,0.3,1.6,0.9,2.6,1.8c0.5,0.4,1,1,1.5,1.6c0.5,0.6,0.9,1.3,1.3,2.1
					c0.4,0.8,0.7,1.6,0.9,2.4c0.2,0.9,0.4,1.7,0.5,2.5c0.1,0.8,0.4,1.6,0.4,2.5c0,0.9,0.1,1.8,0.1,2.6c-0.1,0.8-0.2,1.6-0.3,2.4
					c-0.2,0.7-0.4,1.4-0.6,2.1c-0.3,0.6-0.5,1.2-0.7,1.7c-0.3,0.5-0.5,0.9-0.7,1.2c-0.4,0.6-0.7,1-0.7,1l-0.2-0.1c0,0,0-0.1,0.1-0.3
					c0.1-0.2,0.1-0.5,0.3-0.8c0.1-0.4,0.2-0.8,0.3-1.3c0.1-0.5,0.2-1,0.3-1.7c0.1-0.6,0.1-1.3,0.3-2c0.1-0.7,0-1.4,0.1-2.2
					c0.1-0.8-0.1-1.5-0.1-2.3c0-0.8-0.2-1.6-0.3-2.5c-0.1-0.8-0.2-1.7-0.4-2.4c-0.2-0.8-0.4-1.5-0.6-2.2c-0.3-0.7-0.6-1.4-0.9-2
					c-0.4-0.6-0.7-1.1-1.1-1.6c-0.8-1-1.6-1.6-2.1-2.1C27,3.9,26.6,3.7,26.6,3.6L26.6,3.6z"/>
			</g>
			<g>
				<path class="st0" d="M21.9,3.9c0,0,0.3,0,0.8,0.1c0.5,0.1,1.2,0.4,2,0.9c0.4,0.3,0.8,0.6,1.1,1c0.3,0.4,0.7,0.9,0.9,1.4
					C26.9,7.5,27,7.8,27,8.1c0.1,0.3,0.2,0.6,0.2,0.9l0.1,0.5l0,0.1l0,0.2l0,0.2c0,0.3,0,0.7-0.1,1c-0.2,1.3-0.9,2.5-1.8,3.2
					c-0.9,0.8-1.8,1.3-2.7,1.6c-1.7,0.6-2.9,0.6-2.9,0.6l0-0.2c0,0,0.3-0.1,0.7-0.3c0.5-0.2,1.1-0.5,1.9-0.8
					c0.7-0.4,1.6-0.9,2.3-1.6c0.3-0.4,0.7-0.8,0.9-1.2c0.2-0.4,0.4-0.9,0.5-1.4c0.1-0.3,0.1-0.5,0.1-0.8l0-0.2c0,0,0-0.1,0-0.1
					l0-0.1l0-0.4c0-0.3,0-0.5-0.1-0.8c0-0.3-0.1-0.5-0.2-0.7c-0.1-0.5-0.3-0.9-0.6-1.3c-0.2-0.4-0.6-0.7-0.9-1
					c-0.6-0.5-1.3-0.8-1.8-1c-0.5-0.1-0.8-0.2-0.8-0.2L21.9,3.9z"/>
			</g>
			<g>
				<path class="st0" d="M7.7,13c0.5-0.1,0.9-0.3,1.2-0.5c0.4-0.3,0.7-0.6,0.9-1c0.2-0.4,0.2-0.8,0.2-1.3C9.9,9.8,9.8,9.4,9.5,9
					L9.4,8.7c0-0.1-0.1-0.1-0.1-0.2L9.2,8.3C9.1,8.1,9,7.9,8.9,7.6C8.9,7.4,8.8,7.1,8.8,6.9c0-0.1,0-0.2,0-0.4c0-0.1,0-0.2,0.1-0.4
					c0.1-0.5,0.4-1,0.7-1.4c0.3-0.4,0.7-0.7,1.1-1c0.4-0.3,0.8-0.5,1.3-0.7c0.4-0.2,0.9-0.4,1.4-0.6c0.9-0.3,1.9-0.6,2.8-0.8
					c0.5-0.1,0.9-0.2,1.5-0.2c0.5,0,1-0.1,1.4-0.1c1,0,1.9,0.1,2.9,0.3l-0.1,0l0,0c0.2-0.2,0.5-0.3,0.8-0.5c0.3-0.1,0.5-0.3,0.8-0.4
					c0.3-0.1,0.6-0.2,0.8-0.3c0.3-0.1,0.6-0.2,0.9-0.2L26,0.1c0.3,0,0.6-0.1,0.9-0.1c0.6-0.1,1.2,0,1.8,0v0.1c-0.6,0-1.2,0-1.8,0.1
					c-0.3,0-0.6,0.1-0.9,0.1l-0.9,0.2c-0.3,0.1-0.6,0.2-0.9,0.3C24,0.8,23.8,0.9,23.5,1c-0.3,0.1-0.5,0.3-0.8,0.4
					c-0.3,0.2-0.5,0.3-0.7,0.5l0,0l0,0l-0.1,0C20.9,1.8,20,1.8,19,1.8c-0.5,0-1,0.1-1.4,0.1c-0.4,0-0.9,0.2-1.4,0.2
					c-0.9,0.2-1.9,0.4-2.8,0.8c-0.9,0.3-1.8,0.7-2.5,1.2c-0.4,0.3-0.7,0.6-1,0.9C9.6,5.4,9.3,5.8,9.2,6.2c0,0.1,0,0.2-0.1,0.4
					c0,0.1,0,0.2,0,0.3c0,0.2,0.1,0.4,0.1,0.7c0,0.2,0.2,0.4,0.3,0.7l0.1,0.2c0,0,0.1,0.1,0.1,0.1l0.2,0.3c0.2,0.4,0.5,0.9,0.6,1.4
					c0,0.3,0,0.4,0,0.8c0,0.3-0.1,0.5-0.2,0.8c-0.2,0.5-0.6,0.9-1,1.2c-0.4,0.3-1,0.4-1.5,0.4L7.7,13z"/>
			</g>
			<g>
				<path class="st0" d="M12.6,2.4c-0.1-0.4-0.2-0.8-0.3-1.2c-0.1-0.2-0.1-0.4-0.2-0.5c0-0.1-0.1-0.2-0.2-0.2c0,0-0.1-0.1-0.1-0.1
					c0,0-0.1,0-0.1,0l0.1,0l0,0l-0.4,0.4l0,0l0,0l0,0c-1.1,0.3-2.1,0.7-3,1.3C8.1,2.3,7.9,2.4,7.7,2.6C7.6,2.8,7.6,2.9,7.6,3
					c0,0.1,0.2,0.2,0.3,0.2c0.1,0.1,0.2,0.1,0.4,0.2l0.2,0.1c0,0,0.1,0.1,0.1,0.1c0,0,0,0.1,0,0.1c0,0.3,0,0.6-0.1,0.9l0,0
					c-0.6,2.1-1.3,4.3-1.8,6.5l-0.4,1.6c-0.1,0.5-0.2,1.1-0.4,1.7c-0.2,0.6-0.4,1.1-0.7,1.6c-0.1,0.3-0.3,0.5-0.5,0.7
					c-0.2,0.2-0.4,0.5-0.8,0.7l0.1,0c-0.6,0.4-1.3,0.9-1.9,1.4c-0.3,0.3-0.6,0.5-0.9,0.8c-0.3,0.3-0.6,0.5-0.9,0.8L0,20.2
					c0.5-0.7,1-1.3,1.6-1.9c0.6-0.6,1.2-1.1,1.8-1.6l0,0l0.1,0c0.1-0.1,0.3-0.3,0.5-0.5C4,16,4.2,15.8,4.3,15.5
					c0.3-0.5,0.5-1,0.6-1.5c0.2-0.5,0.3-1,0.4-1.6c0.1-0.6,0.3-1.1,0.5-1.6c0.7-2.1,1.5-4.2,2.3-6.3l0,0C8.3,4.3,8.3,4,8.3,3.8
					c0-0.1-0.1-0.1-0.2-0.2L7.7,3.3C7.6,3.2,7.5,3.2,7.4,3c0-0.2,0.1-0.3,0.2-0.5c0.2-0.2,0.4-0.5,0.6-0.7c0.4-0.4,1-0.7,1.5-0.9
					c0.5-0.2,1.1-0.4,1.7-0.5l0,0l-0.1,0l0.4-0.4h0l0,0l0,0c0.1,0,0.2,0.1,0.2,0.1c0.1,0,0.1,0.1,0.1,0.1c0.1,0.1,0.1,0.2,0.2,0.3
					c0.1,0.2,0.2,0.4,0.2,0.6c0.1,0.4,0.2,0.8,0.2,1.2L12.6,2.4z"/>
			</g>
			<g>
				<path class="st0" d="M9.1,8.2c0,0-0.1,0.2-0.1,0.6C9,9.1,9,9.6,9,10c0,0.2,0.1,0.4,0.2,0.6c0.1,0.2,0.2,0.3,0.3,0.5
					c0.1,0.1,0.2,0.2,0.3,0.3c0.1,0.1,0.1,0.1,0.1,0.1l-0.1,0.2c0,0-0.3-0.1-0.5-0.4c-0.3-0.3-0.4-0.8-0.5-1.3c0-0.5,0-1,0.1-1.3
					C9,8.4,9.1,8.2,9.1,8.2L9.1,8.2z"/>
			</g>
			<g>
				<path class="st0" d="M9.1,9.3c0,0,0.1,0,0.2,0.2C9.5,9.6,9.6,9.8,9.7,10c0,0.1,0,0.2,0,0.4c0,0.1,0,0.2,0,0.3
					c0,0.2-0.1,0.3-0.1,0.3l-0.2-0.1c0,0,0-0.1,0.1-0.3c0-0.1,0.1-0.2,0.1-0.3c0-0.1,0-0.2,0-0.3c0-0.2-0.1-0.4-0.2-0.5
					C9.2,9.4,9.1,9.3,9.1,9.3z"/>
			</g>
			<g>
				<path class="st0" d="M9.1,9.4c0,0,0.1,0,0.1,0.1c0.1,0.1,0.2,0.2,0.2,0.3c0,0.1,0,0.3-0.1,0.3c0,0.1-0.1,0.1-0.1,0.1L9,10.2
					c0,0,0,0,0.1-0.1c0-0.1,0.1-0.2,0.1-0.2C9.2,9.6,9.1,9.5,9.1,9.4L9.1,9.4z"/>
			</g>
			<g>
				<path class="st0" d="M10.1,0.9c0.1,0,0.1,0,0.2,0.1c0.1,0,0.1,0.1,0.1,0.2c0,0.2-0.1,0.3-0.2,0.4h0l0.1-0.1c0,0.3,0,0.6,0,0.9
					c0,0.3,0.1,0.6,0.3,0.9l-0.1,0.1c-0.2-0.3-0.3-0.6-0.4-0.9C10,2.1,9.9,1.8,9.9,1.5l0-0.1L10,1.3v0c0.1,0,0.2-0.1,0.2-0.1
					C10.2,1.2,10.1,1.1,10.1,0.9L10.1,0.9z"/>
			</g>
			<g>
				<path class="st0" d="M0.6,20.1c1-0.4,2.1-0.7,3.2-0.8c1.1-0.1,2.2,0,3.3,0.3c0.5,0.2,1.1,0.4,1.5,0.7c0.5,0.3,0.9,0.7,1.3,1
					l2.4,2.1c1.6,1.4,3.3,2.8,5.1,3.9c0.9,0.6,1.8,1.1,2.8,1.5c1,0.4,2,0.8,3,1l-0.1,0l0,0c0.7-0.4,1.5-0.8,2.2-1.2
					c0.7-0.4,1.4-0.9,2.1-1.3c0.7-0.5,1.3-1,1.8-1.6c0.6-0.6,1-1.2,1.3-2l0.1-0.3l0.1,0.3c0.3,0.7,0.5,1.4,0.6,2.1
					c0.2,0.7,0.3,1.4,0.2,2.2l-0.2,0c0-0.7-0.1-1.4-0.2-2.1c-0.2-0.7-0.4-1.4-0.6-2l0.2,0c-0.1,0.9-0.5,1.7-1.1,2.4
					c-0.5,0.7-1.2,1.3-1.9,1.8c-0.7,0.5-1.4,0.9-2.2,1.3c-0.8,0.4-1.6,0.7-2.4,0.9v0l0,0l0,0c-1.1,0-2.2-0.2-3.3-0.6
					c-1-0.4-2-0.9-3-1.5c-1.9-1.2-3.6-2.6-5.2-4c-0.8-0.7-1.6-1.5-2.4-2.2c-0.4-0.4-0.8-0.7-1.2-1c-0.4-0.3-0.9-0.5-1.4-0.7
					c-2-0.7-4.2-0.5-6.2,0.2L0.6,20.1z"/>
			</g>
		</g>
		<g>
			<path class="st0" d="M4.9,16.8c0.6-0.1,1.3-0.3,1.9-0.5l0.4-0.2C7.3,16.1,7.5,16,7.6,16c0.3-0.1,0.6-0.3,0.9-0.4l0,0l0.1-0.1
				l0.1,0.1C9,16,9.4,16.4,9.8,16.7l1.2,1.1L10.8,18l-1.2-1.1c-0.4-0.3-0.8-0.8-1.1-1.1l0.2,0l0,0c-0.3,0.2-0.5,0.4-0.8,0.6
				c-0.3,0.2-0.6,0.3-0.9,0.4c-0.3,0.1-0.6,0.2-1,0.2c-0.3,0.1-0.7,0.1-1,0.1L4.9,16.8z"/>
		</g>
		<g>
			<path class="st0" d="M12.8,19.9c1.2,0,2.3-0.2,3.4-0.5c0.6-0.1,1.1-0.3,1.6-0.5c0.5-0.2,1.1-0.4,1.5-0.8l0,0l0,0l0.1,0
				c0.5-0.2,1-0.2,1.5-0.2c0.5,0.1,1,0.3,1.4,0.6c0.2,0.1,0.4,0.3,0.6,0.5c0.2,0.2,0.3,0.4,0.5,0.6c0.3,0.4,0.4,0.9,0.5,1.4
				l-0.2,0.1c-0.3-0.4-0.6-0.7-0.9-1c-0.1-0.2-0.3-0.3-0.5-0.4c-0.2-0.1-0.3-0.2-0.5-0.4c-0.7-0.4-1.5-0.7-2.4-0.9l0.1,0l0,0
				c-0.4,0.5-1,0.7-1.5,1c-0.6,0.2-1.1,0.4-1.7,0.5c-1.1,0.3-2.3,0.4-3.5,0.4L12.8,19.9z"/>
		</g>
	</g>
	<g>
		<path class="st0" d="M42.4,10.8h0.9v8.6h-0.9V10.8z"/>
		<path class="st0" d="M45.3,19.3v-8.6h0.2l5.8,6.6v-6.6h0.9v8.6H52l-5.8-6.5v6.5H45.3z"/>
		<path class="st0" d="M53.5,17.7l0.7-0.4c0.5,0.9,1.1,1.4,1.8,1.4c0.3,0,0.6-0.1,0.8-0.2c0.3-0.1,0.5-0.3,0.6-0.5
			c0.1-0.2,0.2-0.5,0.2-0.7c0-0.3-0.1-0.6-0.3-0.8c-0.3-0.4-0.8-0.8-1.5-1.4c-0.7-0.5-1.2-0.9-1.4-1.2C54.2,13.5,54,13,54,12.5
			c0-0.4,0.1-0.7,0.3-1c0.2-0.3,0.4-0.5,0.8-0.7c0.3-0.2,0.7-0.3,1.1-0.3c0.4,0,0.8,0.1,1.2,0.3c0.4,0.2,0.7,0.6,1.1,1.1l-0.7,0.5
			c-0.3-0.4-0.6-0.7-0.8-0.8c-0.2-0.1-0.5-0.2-0.8-0.2c-0.4,0-0.6,0.1-0.9,0.3c-0.2,0.2-0.3,0.5-0.3,0.8c0,0.2,0,0.4,0.1,0.5
			c0.1,0.2,0.2,0.4,0.4,0.6c0.1,0.1,0.5,0.4,1.1,0.9c0.8,0.5,1.3,1,1.6,1.5c0.3,0.4,0.4,0.9,0.4,1.3c0,0.6-0.2,1.2-0.7,1.6
			c-0.5,0.5-1.1,0.7-1.8,0.7c-0.5,0-1-0.1-1.4-0.4C54.2,18.8,53.8,18.4,53.5,17.7z"/>
		<path class="st0" d="M60.3,10.8h0.9v8.6h-0.9V10.8z"/>
		<path class="st0" d="M71.7,12.2L71,12.8c-0.5-0.5-1-0.8-1.6-1.1c-0.6-0.2-1.1-0.4-1.7-0.4c-0.7,0-1.3,0.2-2,0.5
			c-0.6,0.3-1.1,0.8-1.4,1.3c-0.3,0.6-0.5,1.2-0.5,1.8c0,0.6,0.2,1.3,0.5,1.8c0.4,0.6,0.8,1,1.5,1.4c0.6,0.3,1.3,0.5,2.1,0.5
			c0.9,0,1.7-0.2,2.3-0.7c0.6-0.5,1-1.1,1.1-1.9h-2.8v-0.8h3.8c0,1.3-0.4,2.4-1.2,3.2c-0.8,0.8-1.9,1.2-3.2,1.2
			c-1.6,0-2.9-0.5-3.9-1.6c-0.7-0.8-1.1-1.8-1.1-2.9c0-0.8,0.2-1.6,0.6-2.3c0.4-0.7,1-1.2,1.7-1.6c0.7-0.4,1.5-0.6,2.5-0.6
			c0.7,0,1.4,0.1,2.1,0.4C70.4,11.2,71,11.6,71.7,12.2z"/>
		<path class="st0" d="M73.8,10.8h0.9v3.6h4.5v-3.6h0.9v8.6h-0.9v-4.1h-4.5v4.1h-0.9V10.8z"/>
		<path class="st0" d="M81.3,11.6v-0.8h4.8v0.8h-2v7.7h-0.9v-7.7H81.3z"/>
		<path class="st0" d="M87.4,10.8h5v0.8h-4.1v2.7h4.1v0.8h-4.1v3.4h4.1v0.8h-5V10.8z"/>
		<path class="st0" d="M93.2,10.8h1l2.2,3.5l2.2-3.5h1l-2.8,4.5v4.1h-0.9v-4.1L93.2,10.8z"/>
		<path class="st0" d="M101.2,10.8h5v0.8H102v2.7h4.1v0.8H102v3.4h4.1v0.8h-5V10.8z"/>
	</g>
</g>
</svg>
